<?xml version="1.0" encoding="UTF-8"?>
<svg id="Layer_2" data-name="Layer 2" xmlns="http://www.w3.org/2000/svg" viewBox="0 0 512 512">
  <defs>
    <style>
      .cls-1 {
        fill: #fff;
      }
    </style>
  </defs>
  <g id="Layer_1-2" data-name="Layer 1">
    <g>
      <path class="cls-1" d="m0,240c1.34-9.69,2.3-19.45,4.07-29.06,10.92-59.48,39.37-109.04,84.84-148.87.75-.66,1.5-1.35,2.34-1.86,3.6-2.2,7.05-2.02,9.88,1.21,2.85,3.26,2.6,6.83-.24,9.91-2.36,2.56-5.2,4.67-7.74,7.07C39.04,129.43,13.03,192.23,15.27,266.46c1.06,35.24,10.23,68.63,26.44,100.01.76,1.47,1.61,2.88,2.69,4.82,10.3-6,20.45-11.89,30.58-17.83,56.15-32.92,112.28-65.88,168.5-98.67,3.82-2.23,5.14-4.59,5.13-9-.15-74.64-.11-149.29-.11-223.93v-6.7c-18.01.56-35.1,2.94-51.9,7.24-23.36,5.97-45.37,15.2-65.99,27.73-1.83,1.11-3.79,2.37-5.82,2.68-3.69.58-6.57-1.22-7.81-4.78-1.4-3.99-.07-7.33,3.69-9.27,13.44-6.93,26.62-14.5,40.51-20.39C185.23,8.17,210.55,2.62,236.65.8c1.13-.08,2.23-.52,3.35-.8,10.67,0,21.33,0,32,0,3.28.4,6.55.85,9.83,1.2,48.33,5.18,92.1,22.06,130.4,52.06,51.78,40.57,84.1,93.2,95.78,158.16,1.7,9.46,2.68,19.05,3.99,28.58v32c-.27,1.11-.65,2.2-.8,3.33-1.39,10.22-2.3,20.52-4.19,30.65-18.9,101.52-103.74,184.88-205.44,201.94-9.81,1.65-19.71,2.74-29.58,4.09h-32c-1.28-.28-2.54-.73-3.83-.83-46.74-3.57-89.5-18.58-127.53-45.92C51.72,424.33,16.35,369.39,3.92,300.13,2.25,290.82,1.29,281.38,0,272c0-10.67,0-21.33,0-32ZM263.81,14.75c-.14,2.25-.3,3.72-.3,5.19-.01,75.65,0,151.29-.07,226.94,0,3.35.9,5.37,3.99,7.1,27.14,15.25,54.17,30.68,81.23,46.06,9.55,5.43,19.13,10.81,28.65,16.3,4.76,2.75,6.2,6.85,4.08,10.79-2.14,3.96-6.42,4.86-11.24,2.36-.74-.38-1.45-.82-2.17-1.23-35.88-20.41-71.79-40.77-107.61-61.3-3.17-1.82-5.4-1.77-8.53.07-54.95,32.34-109.98,64.54-164.99,96.78-11.58,6.79-23.14,13.61-35.49,20.88,55.51,78.92,129.99,118.79,226.47,110.91,79.76-6.52,140.09-47.03,184.14-113.67-2.09-1.28-3.45-2.17-4.86-2.97-17.79-10.13-35.6-20.24-53.39-30.38-5.62-3.2-7.25-6.97-4.95-11.26,2.31-4.31,6.8-4.94,12.5-1.7,8.83,5.01,17.64,10.06,26.48,15.07,10.38,5.89,20.77,11.76,31.99,18.11,38.13-80.75,38.51-160.28-7.46-236.77-44.44-73.94-112.14-111.66-198.46-117.31Z"/>
      <path class="cls-1" d="m178.25,217.35c-17.26.55-33.08,5.09-48.03,13.08-17.3,9.24-35.66,15.01-55.36,14.73-10.92-.16-21.84-1.78-32.7-3.16-4.25-.54-6.07-3.92-5.68-8.1.38-4.01,3.89-6.63,8.17-6.34,1.65.11,3.28.61,4.94.76,8.11.7,16.22,1.82,24.34,1.91,17.17.2,33.26-4.46,48.28-12.58,20.64-11.17,42.5-16.39,65.9-13.55,8.71,1.05,17.33,3.11,25.89,5.11,4.53,1.06,6.68,5.27,5.45,9.16-1.29,4.09-4.96,6.05-9.46,5.16-10.58-2.09-21.16-4.12-31.74-6.17Z"/>
      <path class="cls-1" d="m74.2,275.89c-9.05-1.2-18.14-2.2-27.15-3.67-5.71-.93-8.19-4.63-7.09-9.37.97-4.19,4.61-6.25,9.81-5.18,27.86,5.71,54.18,1.81,79.24-11.79,27.92-15.16,57.21-15.82,87.17-7.21,6.05,1.74,8.57,6.64,5.79,11.21-1.93,3.18-4.73,4.28-8.52,3.47-7.79-1.65-15.6-3.4-23.49-4.45-18.72-2.5-36.45,1.11-53.15,9.77-15.33,7.95-31.16,14.27-48.55,15.84-4.64.42-9.3.57-13.96.84-.04.19-.07.37-.11.56Z"/>
      <path class="cls-1" d="m143.33,180.63c-17.69-11.15-35.49-12.23-53.97-3.86-1.21.55-2.34,1.28-3.57,1.78-4.36,1.79-8.53.46-10.28-3.23-1.79-3.78-.47-7.84,3.61-10.14,10.5-5.9,21.88-8.98,33.87-8.93,16.33.07,31.02,5.31,43.71,15.72,6.68,5.48,6.68,11.4.11,17.05-4.04,3.47-8.1,6.92-12.29,10.2-3.68,2.89-8.04,2.58-10.74-.47-2.84-3.21-2.38-7.6,1.31-11,2.54-2.34,5.23-4.53,8.24-7.13Z"/>
      <path class="cls-1" d="m213.13,157.75c.02,13.66-10.73,24.39-24.4,24.37-13.6-.02-24.58-10.93-24.52-24.37.06-13.45,10.99-24.4,24.52-24.56,13.3-.16,24.39,11,24.4,24.56Zm-15.02.12c.06-5.31-4.15-9.63-9.36-9.62-5.15.02-9.53,4.46-9.47,9.61.06,5.03,4.15,9.14,9.21,9.25,5.36.12,9.57-3.92,9.63-9.24Z"/>
      <path class="cls-1" d="m369.28,169.77c-8.17,1.86-16.07,2.27-20.36,10.85-2.8,5.6-6.94,10.56-10.6,15.72-3.19,4.5-7.38,5.55-11.08,2.99-3.8-2.63-4.33-6.75-1.21-11.41,5.19-7.74,10.28-15.57,15.88-23.01,1.86-2.47,4.92-4.65,7.86-5.6,8.68-2.81,17.62-4.83,26.39-7.38,5.99-1.74,10.73-.1,14.79,4.43,4.66,5.2,9.42,10.3,14.37,15.7,6.08-4.78,11.91-9.42,17.8-13.98,4.71-3.64,8.97-3.6,11.86-.01,3,3.72,2.22,7.92-2.39,11.63-6.48,5.22-13.02,10.38-19.62,15.45-6.14,4.71-11.96,4.23-17.33-1.37-3.44-3.59-6.75-7.31-10.73-11.64-5.23,13.37-10.21,26.13-15.39,39.38,7.18,3.94,14.13,7.77,21.1,11.56,8.49,4.62,10.17,8.58,7.46,17.96-3.32,11.5-6.66,22.99-10.03,34.47-1.64,5.6-5.33,8.24-9.64,7.03-4.68-1.31-6.34-5.31-4.63-11.31,3.28-11.48,6.59-22.96,9.99-34.76-7.05-3.85-13.88-7.58-21.16-11.56-5.65,8.53-11.19,16.95-16.79,25.34-4.55,6.81-9.14,8.34-16.61,5.43-9.3-3.61-18.56-7.31-27.81-11.06-5.27-2.14-7.18-5.7-5.59-10.03,1.67-4.54,5.61-5.96,11.17-3.82,8.82,3.39,17.59,6.91,26.11,10.26,17.93-20.81,27.55-45.42,36.18-71.27Z"/>
      <path class="cls-1" d="m244.66,351.5c-9.73,6.06-19.04,11.84-28.33,17.65-1.1.69-2.13,1.49-3.66,2.56,7.14,3.11,13.84,6.01,20.51,8.94,7.68,3.37,9.47,6.73,8.1,14.82-1.84,10.82-3.61,21.65-5.43,32.47-.16.98-.41,1.95-.67,2.92-1.27,4.71-4.42,6.93-8.71,6.17-4.12-.74-6.59-4.25-5.84-8.95,1.53-9.69,3.09-19.37,5.02-28.99.76-3.79-.01-5.69-3.76-7.12-7.45-2.84-14.67-6.27-22.03-9.36-4.34-1.82-7.32-4.74-7.68-9.55-.36-4.82,2.25-8.07,6.25-10.53,13.74-8.47,27.38-17.08,41.12-25.54,8.43-5.19,14.56-3.1,18.12,6.05,1.69,4.34,3.46,8.66,4.77,13.12.89,3.04,2.74,4.15,5.58,4.69,8.49,1.62,16.96,3.35,25.42,5.1,5.38,1.12,8.18,4.53,7.4,8.83-.83,4.61-4.88,6.93-10.37,5.84-9.62-1.9-19.23-3.86-28.84-5.78-6.05-1.21-10.17-4.46-12.09-10.53-1.34-4.23-3.15-8.3-4.89-12.83Z"/>
      <path class="cls-1" d="m290.11,386.76c20.92.13,37.14,16.72,36.93,37.77-.2,19.88-17.01,36.44-36.94,36.41-20.76-.03-37.33-16.83-37.15-37.68.17-20.32,16.78-36.63,37.17-36.5Zm-22.19,36.89c-.03,12.34,9.8,22.29,22.05,22.29,12.18,0,22.1-10,22.07-22.29-.02-12.15-9.62-21.79-21.81-21.93-12.39-.13-22.28,9.59-22.32,21.92Z"/>
      <path class="cls-1" d="m138.97,423.47c.12-20.59,16.79-36.93,37.47-36.72,20.62.21,36.83,16.83,36.62,37.56-.2,20.24-16.91,36.67-37.21,36.59-20.47-.08-37-16.85-36.87-37.44Zm59.1.2c-.04-12.36-9.88-22.05-22.28-21.94-12.16.1-21.77,9.76-21.83,21.91-.05,12.32,9.8,22.28,22.04,22.3,12.24.01,22.11-9.95,22.07-22.26Z"/>
      <path class="cls-1" d="m283.9,348.01c-13.45-.13-24.12-11.18-23.98-24.83.14-13.46,11.31-24.32,24.79-24.1,13.36.22,24.4,11.62,24.12,24.91-.28,13.48-11.37,24.16-24.94,24.03Zm9.89-24.21c.13-5.08-4.32-9.69-9.38-9.72-5.05-.03-9.27,3.98-9.48,9.02-.23,5.33,3.76,9.7,9.04,9.9,5.22.2,9.7-4,9.83-9.2Z"/>
      <path class="cls-1" d="m370.66,123.27c-.13-13.63,10.42-24.48,24.09-24.77,13.35-.29,24.54,10.64,24.76,24.16.22,13.48-10.56,24.51-24.14,24.72-13.54.21-24.58-10.57-24.7-24.11Zm33.81-.46c-.06-5.27-4.35-9.38-9.69-9.28-5.06.1-9.08,4.21-9.13,9.31-.05,5.37,4.05,9.49,9.42,9.5,5.33,0,9.46-4.19,9.4-9.53Z"/>
    </g>
  </g>
</svg>